<svg width="20" height="20" viewBox="0 0 20 20" fill="none" xmlns="http://www.w3.org/2000/svg">
<path d="M4.16667 4.16671H5.83333V5.00004C5.83333 5.91671 6.58333 6.66671 7.5 6.66671H12.5C13.4167 6.66671 14.1667 5.91671 14.1667 5.00004V4.16671H15.8333V8.33337H17.5V4.16671C17.5 3.25004 16.75 2.50004 15.8333 2.50004H12.35C12 1.53337 11.0833 0.833374 10 0.833374C8.91667 0.833374 8 1.53337 7.65 2.50004H4.16667C3.25 2.50004 2.5 3.25004 2.5 4.16671V15.8334C2.5 16.75 3.25 17.5 4.16667 17.5H9.16667V15.8334H4.16667V4.16671ZM10 2.50004C10.4583 2.50004 10.8333 2.87504 10.8333 3.33337C10.8333 3.79171 10.4583 4.16671 10 4.16671C9.54167 4.16671 9.16667 3.79171 9.16667 3.33337C9.16667 2.87504 9.54167 2.50004 10 2.50004Z" fill="black"/>
<path d="M18.1252 10.2083C17.7836 9.86661 17.2169 9.86661 16.8752 10.2083L12.9252 14.1666L11.0419 12.2916C10.7002 11.9499 10.1419 11.9499 9.79189 12.2916C9.45023 12.6333 9.45023 13.1999 9.79189 13.5416L12.3336 16.0749C12.6586 16.3999 13.1836 16.3999 13.5086 16.0749L18.1169 11.4583C18.4669 11.1166 18.4669 10.5499 18.1252 10.2083Z" fill="black"/>
</svg>
