<svg width="38" height="38" viewBox="0 0 38 38" fill="none" xmlns="http://www.w3.org/2000/svg">
<path d="M21.898 30.0834C21.6614 30.0843 21.4277 30.032 21.214 29.9307C21.0003 29.8293 20.812 29.6813 20.663 29.4976L13.0155 19.9976C12.7826 19.7143 12.6553 19.3589 12.6553 18.9922C12.6553 18.6255 12.7826 18.2701 13.0155 17.9868L20.9321 8.48678C21.2009 8.16343 21.5871 7.9601 22.0057 7.92149C22.4244 7.88289 22.8413 8.01219 23.1646 8.28094C23.488 8.5497 23.6913 8.93589 23.7299 9.35457C23.7685 9.77324 23.6392 10.1901 23.3705 10.5134L16.293 19.0001L23.133 27.4868C23.3266 27.7192 23.4496 28.0022 23.4874 28.3023C23.5252 28.6024 23.4762 28.9071 23.3463 29.1803C23.2164 29.4534 23.0109 29.6837 22.7543 29.8437C22.4976 30.0038 22.2004 30.087 21.898 30.0834Z" fill="black"/>
</svg>
