<svg width="44" height="44" viewBox="0 0 44 44" fill="none" xmlns="http://www.w3.org/2000/svg">
<path d="M40.5624 15.417L14.8332 1.64621C14.2526 1.33795 13.6052 1.17676 12.9478 1.17676C12.2904 1.17676 11.643 1.33795 11.0624 1.64621L3.4582 5.60454C2.77256 5.98027 2.19896 6.53127 1.79597 7.20124C1.39298 7.87122 1.17506 8.63616 1.16447 9.41792C1.15388 10.1997 1.35099 10.9702 1.73568 11.6509C2.12036 12.3315 2.67883 12.8979 3.35403 13.292L28.8124 27.7295C29.4307 28.0725 30.1261 28.2524 30.8332 28.2524C31.5403 28.2524 32.2357 28.0725 32.854 27.7295L40.7499 23.0629C41.4112 22.6588 41.9545 22.0878 42.3253 21.4073C42.6961 20.7267 42.8813 19.9606 42.8623 19.1859C42.8433 18.4111 42.6207 17.655 42.217 16.9934C41.8133 16.3319 41.2427 15.7882 40.5624 15.417V15.417Z" stroke="black" stroke-width="2" stroke-linecap="round" stroke-linejoin="round"/>
<path d="M22.0004 42.8337V24.0837M3.43794 15.417L29.1671 1.64621C29.7478 1.33795 30.3951 1.17676 31.0525 1.17676C31.7099 1.17676 32.3573 1.33795 32.9379 1.64621L40.5421 5.60454C41.2333 5.97079 41.8148 6.51401 42.2271 7.17868C42.6395 7.84334 42.868 8.6056 42.8892 9.38751C42.9104 10.1694 42.7235 10.9429 42.3477 11.629C41.972 12.315 41.4207 12.8889 40.7504 13.292L15.1879 27.7295C14.5696 28.0725 13.8742 28.2524 13.1671 28.2524C12.46 28.2524 11.7646 28.0725 11.1463 27.7295L3.25044 23.0629C2.58915 22.6588 2.04582 22.0878 1.67503 21.4073C1.30424 20.7267 1.11905 19.9606 1.13805 19.1859C1.15705 18.4111 1.37957 17.655 1.78327 16.9934C2.18697 16.3319 2.75763 15.7882 3.43794 15.417V15.417Z" stroke="black" stroke-width="2" stroke-linecap="round" stroke-linejoin="round"/>
<path d="M38.6673 25.125V32.1458C38.6681 32.9322 38.4529 33.7036 38.0451 34.376C37.6373 35.0483 37.0526 35.5957 36.3548 35.9583L23.8548 42.375C23.2821 42.6726 22.6461 42.828 22.0007 42.828C21.3552 42.828 20.7192 42.6726 20.1465 42.375L7.64649 35.9583C6.94874 35.5957 6.36405 35.0483 5.95624 34.376C5.54842 33.7036 5.33317 32.9322 5.33399 32.1458V25.125" stroke="black" stroke-width="2" stroke-linecap="round" stroke-linejoin="round"/>
</svg>
