<svg width="29" height="30" viewBox="0 0 29 30" fill="none" xmlns="http://www.w3.org/2000/svg">
<path d="M9.10938 2.67188H8.8125C8.97578 2.67188 9.10938 2.53828 9.10938 2.375V2.67188H20.3906V2.375C20.3906 2.53828 20.5242 2.67188 20.6875 2.67188H20.3906V5.34375H23.0625V2.375C23.0625 1.06504 21.9975 0 20.6875 0H8.8125C7.50254 0 6.4375 1.06504 6.4375 2.375V5.34375H9.10938V2.67188ZM27.8125 5.34375H1.6875C1.03066 5.34375 0.5 5.87441 0.5 6.53125V7.71875C0.5 7.88203 0.633594 8.01562 0.796875 8.01562H3.03828L3.95488 27.4238C4.01426 28.6893 5.06074 29.6875 6.32617 29.6875H23.1738C24.443 29.6875 25.4857 28.693 25.5451 27.4238L26.4617 8.01562H28.7031C28.8664 8.01562 29 7.88203 29 7.71875V6.53125C29 5.87441 28.4693 5.34375 27.8125 5.34375ZM22.8881 27.0156H6.61191L5.71387 8.01562H23.7861L22.8881 27.0156Z" fill="black"/>
</svg>
