<svg width="96" height="8" viewBox="0 0 96 8" fill="none" xmlns="http://www.w3.org/2000/svg">
<path d="M0 4C0 6.20914 1.79086 8 4 8C6.20914 8 8 6.20914 8 4C8 1.79086 6.20914 0 4 0C1.79086 0 0 1.79086 0 4ZM88 4C88 6.20914 89.7909 8 92 8C94.2091 8 96 6.20914 96 4C96 1.79086 94.2091 0 92 0C89.7909 0 88 1.79086 88 4ZM7.66667 4.75C8.08088 4.75 8.41667 4.41421 8.41667 4C8.41667 3.58579 8.08088 3.25 7.66667 3.25V4.75ZM15 3.25C14.5858 3.25 14.25 3.58579 14.25 4C14.25 4.41421 14.5858 4.75 15 4.75V3.25ZM22.3333 4.75C22.7475 4.75 23.0833 4.41421 23.0833 4C23.0833 3.58579 22.7475 3.25 22.3333 3.25V4.75ZM29.6667 3.25C29.2525 3.25 28.9167 3.58579 28.9167 4C28.9167 4.41421 29.2525 4.75 29.6667 4.75V3.25ZM37 4.75C37.4142 4.75 37.75 4.41421 37.75 4C37.75 3.58579 37.4142 3.25 37 3.25V4.75ZM44.3333 3.25C43.9191 3.25 43.5833 3.58579 43.5833 4C43.5833 4.41421 43.9191 4.75 44.3333 4.75V3.25ZM51.6667 4.75C52.0809 4.75 52.4167 4.41421 52.4167 4C52.4167 3.58579 52.0809 3.25 51.6667 3.25V4.75ZM59 3.25C58.5858 3.25 58.25 3.58579 58.25 4C58.25 4.41421 58.5858 4.75 59 4.75V3.25ZM66.3333 4.75C66.7475 4.75 67.0833 4.41421 67.0833 4C67.0833 3.58579 66.7475 3.25 66.3333 3.25V4.75ZM73.6667 3.25C73.2524 3.25 72.9167 3.58579 72.9167 4C72.9167 4.41421 73.2524 4.75 73.6667 4.75V3.25ZM81 4.75C81.4142 4.75 81.75 4.41421 81.75 4C81.75 3.58579 81.4142 3.25 81 3.25V4.75ZM88.3333 3.25C87.9191 3.25 87.5833 3.58579 87.5833 4C87.5833 4.41421 87.9191 4.75 88.3333 4.75V3.25ZM4 4.75H7.66667V3.25H4V4.75ZM15 4.75H22.3333V3.25H15V4.75ZM29.6667 4.75H37V3.25H29.6667V4.75ZM44.3333 4.75H51.6667V3.25H44.3333V4.75ZM59 4.75H66.3333V3.25H59V4.75ZM73.6667 4.75H81V3.25H73.6667V4.75ZM88.3333 4.75H92V3.25H88.3333V4.75Z" fill="#1E9923"/>
</svg>
