<svg width="21" height="25" viewBox="0 0 21 25" fill="none" xmlns="http://www.w3.org/2000/svg">
<path d="M6.5625 3.07121C6.2144 3.07121 5.88056 3.21086 5.63442 3.45944C5.38828 3.70802 5.25 4.04516 5.25 4.3967C5.25 4.74824 5.38828 5.08538 5.63442 5.33396C5.88056 5.58254 6.2144 5.72219 6.5625 5.72219C6.9106 5.72219 7.24444 5.58254 7.49058 5.33396C7.73672 5.08538 7.875 4.74824 7.875 4.3967C7.875 4.04516 7.73672 3.70802 7.49058 3.45944C7.24444 3.21086 6.9106 3.07121 6.5625 3.07121ZM2.84812 3.07121C3.11929 2.2951 3.62216 1.62303 4.28741 1.14765C4.95267 0.672275 5.74755 0.416992 6.5625 0.416992C7.37745 0.416992 8.17233 0.672275 8.83759 1.14765C9.50284 1.62303 10.0057 2.2951 10.2769 3.07121H19.6875C20.0356 3.07121 20.3694 3.21086 20.6156 3.45944C20.8617 3.70802 21 4.04516 21 4.3967C21 4.74824 20.8617 5.08538 20.6156 5.33396C20.3694 5.58254 20.0356 5.72219 19.6875 5.72219H10.2769C10.0057 6.4983 9.50284 7.17037 8.83759 7.64575C8.17233 8.12113 7.37745 8.37641 6.5625 8.37641C5.74755 8.37641 4.95267 8.12113 4.28741 7.64575C3.62216 7.17037 3.11929 6.4983 2.84812 5.72219H1.3125C0.964403 5.72219 0.630564 5.58254 0.384423 5.33396C0.138281 5.08538 0 4.74824 0 4.3967C0 4.04516 0.138281 3.70802 0.384423 3.45944C0.630564 3.21086 0.964403 3.07121 1.3125 3.07121H2.84812ZM14.4375 11.0241C14.0894 11.0241 13.7556 11.1638 13.5094 11.4124C13.2633 11.6609 13.125 11.9981 13.125 12.3496C13.125 12.7012 13.2633 13.0383 13.5094 13.2869C13.7556 13.5355 14.0894 13.6751 14.4375 13.6751C14.7856 13.6751 15.1194 13.5355 15.3656 13.2869C15.6117 13.0383 15.75 12.7012 15.75 12.3496C15.75 11.9981 15.6117 11.6609 15.3656 11.4124C15.1194 11.1638 14.7856 11.0241 14.4375 11.0241ZM10.7231 11.0241C10.9943 10.248 11.4972 9.57595 12.1624 9.10057C12.8277 8.62519 13.6226 8.36991 14.4375 8.36991C15.2524 8.36991 16.0473 8.62519 16.7126 9.10057C17.3778 9.57595 17.8807 10.248 18.1519 11.0241H19.6875C20.0356 11.0241 20.3694 11.1638 20.6156 11.4124C20.8617 11.6609 21 11.9981 21 12.3496C21 12.7012 20.8617 13.0383 20.6156 13.2869C20.3694 13.5355 20.0356 13.6751 19.6875 13.6751H18.1519C17.8807 14.4512 17.3778 15.1233 16.7126 15.5987C16.0473 16.074 15.2524 16.3293 14.4375 16.3293C13.6226 16.3293 12.8277 16.074 12.1624 15.5987C11.4972 15.1233 10.9943 14.4512 10.7231 13.6751H1.3125C0.964403 13.6751 0.630564 13.5355 0.384423 13.2869C0.138281 13.0383 0 12.7012 0 12.3496C0 11.9981 0.138281 11.6609 0.384423 11.4124C0.630564 11.1638 0.964403 11.0241 1.3125 11.0241H10.7231ZM6.5625 18.9771C6.2144 18.9771 5.88056 19.1167 5.63442 19.3653C5.38828 19.6139 5.25 19.951 5.25 20.3025C5.25 20.6541 5.38828 20.9912 5.63442 21.2398C5.88056 21.4884 6.2144 21.628 6.5625 21.628C6.9106 21.628 7.24444 21.4884 7.49058 21.2398C7.73672 20.9912 7.875 20.6541 7.875 20.3025C7.875 19.951 7.73672 19.6139 7.49058 19.3653C7.24444 19.1167 6.9106 18.9771 6.5625 18.9771ZM2.84812 18.9771C3.11929 18.2009 3.62216 17.5289 4.28741 17.0535C4.95267 16.5781 5.74755 16.3228 6.5625 16.3228C7.37745 16.3228 8.17233 16.5781 8.83759 17.0535C9.50284 17.5289 10.0057 18.2009 10.2769 18.9771H19.6875C20.0356 18.9771 20.3694 19.1167 20.6156 19.3653C20.8617 19.6139 21 19.951 21 20.3025C21 20.6541 20.8617 20.9912 20.6156 21.2398C20.3694 21.4884 20.0356 21.628 19.6875 21.628H10.2769C10.0057 22.4041 9.50284 23.0762 8.83759 23.5516C8.17233 24.027 7.37745 24.2822 6.5625 24.2822C5.74755 24.2822 4.95267 24.027 4.28741 23.5516C3.62216 23.0762 3.11929 22.4041 2.84812 21.628H1.3125C0.964403 21.628 0.630564 21.4884 0.384423 21.2398C0.138281 20.9912 0 20.6541 0 20.3025C0 19.951 0.138281 19.6139 0.384423 19.3653C0.630564 19.1167 0.964403 18.9771 1.3125 18.9771H2.84812Z" fill="#696969" fill-opacity="0.5"/>
</svg>
