<svg width="50" height="50" viewBox="0 0 50 50" fill="none" xmlns="http://www.w3.org/2000/svg">
<path d="M21.8112 0V22.131H28.1888V0.000106893L21.8112 0ZM18.4951 4.88309C7.84186 7.51155 0 16.4394 0 27.0491C0 39.7244 11.1928 50 25 50C38.807 50 50 39.7244 50 27.0491C50 16.4394 42.1581 7.51155 31.505 4.8832V10.2708C39.0166 12.7253 44.3945 19.3106 44.3945 27.0491C44.3945 36.8825 35.7113 44.8541 25 44.8541C14.2886 44.8541 5.60535 36.8824 5.60535 27.049C5.60535 19.3104 10.9833 12.7252 18.4951 10.2706V4.88309Z" fill="black"/>
</svg>
