<svg width="20" height="20" viewBox="0 0 20 20" fill="none" xmlns="http://www.w3.org/2000/svg">
<path d="M4.16667 4.16634H5.83333V4.99967C5.83333 5.91634 6.58333 6.66634 7.5 6.66634H12.5C13.4167 6.66634 14.1667 5.91634 14.1667 4.99967V4.16634H15.8333V8.33301H17.5V4.16634C17.5 3.24967 16.75 2.49967 15.8333 2.49967H12.35C12 1.53301 11.0833 0.833008 10 0.833008C8.91667 0.833008 8 1.53301 7.65 2.49967H4.16667C3.25 2.49967 2.5 3.24967 2.5 4.16634V15.833C2.5 16.7497 3.25 17.4997 4.16667 17.4997H9.16667V15.833H4.16667V4.16634ZM10 2.49967C10.4583 2.49967 10.8333 2.87467 10.8333 3.33301C10.8333 3.79134 10.4583 4.16634 10 4.16634C9.54167 4.16634 9.16667 3.79134 9.16667 3.33301C9.16667 2.87467 9.54167 2.49967 10 2.49967Z" fill="white"/>
<path d="M18.1247 10.2084C17.7831 9.86673 17.2164 9.86673 16.8747 10.2084L12.9247 14.1667L11.0414 12.2917C10.6997 11.9501 10.1414 11.9501 9.79141 12.2917C9.44974 12.6334 9.44974 13.2001 9.79141 13.5417L12.3331 16.0751C12.6581 16.4001 13.1831 16.4001 13.5081 16.0751L18.1164 11.4584C18.4664 11.1167 18.4664 10.5501 18.1247 10.2084V10.2084Z" fill="white"/>
</svg>
