<svg width="80" height="87" viewBox="0 0 80 87" fill="none" xmlns="http://www.w3.org/2000/svg">
<path d="M39.8077 0.00284879L45.7108 14.5488L56.7937 41.8449C58.9237 47.0929 61.0651 52.341 63.124 57.6118C64.4424 60.9758 66.3076 66.1669 70.6815 66.2494H71.6754V67.8716H42.9315V65.8794C42.9315 65.8794 44.2215 65.4611 44.2955 65.4298C45.4695 64.907 46.5247 64.1507 47.3966 63.207C50.5916 59.7918 51.7933 54.669 49.2703 50.5565C46.827 46.5892 42.5528 43.82 38.569 41.6087C35.9321 40.1458 33.2895 38.6915 30.6554 37.2201C28.4798 36.0049 26.2986 34.875 24.5046 33.1105C21.2666 29.8559 19.4345 25.4622 19.4016 20.8726C19.2991 13.1144 25.5838 4.44546 33.7707 3.88764L32.9734 6.79627C32.9421 6.90442 31.6208 7.29148 31.4812 7.36548C30.3146 7.9069 29.2539 8.65187 28.3489 9.56544C25.2991 12.6676 24.6469 18.6129 26.4922 22.529C27.8135 25.3409 30.4305 27.1424 33.0844 28.5796C36.1542 30.2417 39.278 31.8184 42.3534 33.4719L34.1352 12.1838L39.5144 0" fill="#121A29"/>
<path d="M56.0935 7.75535V19.6716L54.2739 19.387C54.2739 19.387 54.3964 10.0862 45.5374 6.67102L44.7515 4.49097C44.7515 4.49097 51.8762 4.99187 56.0935 7.75535Z" fill="#121A29"/>
<path d="M21.1219 47.574C20.7204 47.574 18.0066 54.689 17.8329 55.096C16.9786 57.0455 16.2269 59.0804 15.233 60.9531C13.8833 63.5145 11.5055 66.4231 8.32471 66.3206V67.8717H29.3373V65.3103C29.3373 65.1936 27.1702 64.2288 26.9766 64.1264C23.9524 62.4956 22.0645 60.4266 21.3924 56.9658C20.7904 53.7588 21.3113 50.4424 22.8675 47.574H21.1219Z" fill="#121A29"/>
<path d="M6.27939 85.1757C6.27939 85.1757 5.68391 86.2123 3.64344 86.2123C1.18388 86.2123 0.170708 85.4288 0.170708 85.4288V83.0024H0.385182C0.667404 83.7732 1.38708 85.9971 3.64344 85.9971C4.99952 85.9971 5.41862 84.1685 3.87204 83.0432L1.91906 81.8181C0.119893 80.6928 -0.551786 79.4268 0.49949 78.0525C0.49949 78.0525 1.12037 77.0918 3.12415 77.0918C5.29161 77.0918 6.381 77.6981 6.381 77.6981V79.822H6.16651C5.92521 79.1511 5.15191 77.307 3.12415 77.307C1.75537 77.307 1.26007 78.9753 2.90825 80.0485L4.85982 81.337C6.53339 82.4341 7.23047 83.7986 6.27939 85.1757Z" fill="#121A29"/>
<path d="M16.5327 85.8832V86.0985H15.3672C13.1094 86.0858 13.441 86.0858 12.5534 83.3443C12.1301 82.0418 10.9687 82.0418 10.9687 82.0418H10.3732V84.5737C10.3732 85.4331 10.7782 85.8875 11.3102 85.8875V86.1027H7.62158V85.8875C8.16768 85.8875 8.53457 85.4331 8.53457 84.5737V78.5463C8.53457 77.7628 8.18038 77.421 7.62158 77.421V77.2058H10.7655C13.2886 77.2058 15.0624 77.5096 15.0624 79.6196C15.0624 81.1669 14.1 81.7295 12.5915 81.9067C13.4156 81.8181 14.426 82.3737 15.0497 84.6482C15.3051 85.6061 16.2054 85.8579 16.5327 85.8832ZM13.005 79.6139C13.005 77.4154 12.0045 77.4154 10.774 77.4154H10.3817V81.8251H10.774C11.9974 81.828 13.005 81.8153 13.005 79.6139Z" fill="#121A29"/>
<path d="M21.1101 77.2029V77.4181C20.5654 77.4181 20.0321 77.7585 20.0321 78.5434V84.5708C20.0321 85.4302 20.5781 85.8845 21.1101 85.8845V86.0997H17.1167V85.8845C17.6614 85.8845 18.1948 85.4302 18.1948 84.5708V78.5434C18.1948 77.7599 17.6755 77.4181 17.1167 77.4181V77.2029H21.1101Z" fill="#121A29"/>
<path d="M33.0257 85.8831V86.0984H29.4006V85.8831C30.3883 85.8831 29.7294 84.5314 29.7294 84.5314L29.3498 83.6086H26.3455C26.3455 83.6086 25.5595 85.9844 27.5619 85.8831V86.0984H24.4434V85.8831C24.7736 85.8578 25.0896 85.9591 26.3328 82.9644L28.5257 77.1973H28.7402C31.8446 84.627 31.9603 84.9562 31.9603 84.9562C32.3921 85.9718 32.6955 85.8578 33.0257 85.8831ZM29.2736 83.3948L27.7651 79.7053L26.3836 83.3948H29.2736Z" fill="#121A29"/>
<path d="M41.9989 85.8831V86.0984H38.3738V85.8831C39.3616 85.8831 38.704 84.5314 38.704 84.5314L38.323 83.6086H35.3187C35.3187 83.6086 34.5327 85.9844 36.5365 85.8831V86.0984H33.418V85.8831C33.7468 85.8578 34.0643 85.9591 35.306 82.9644L37.4989 77.1973H37.7148C40.8192 84.627 40.9349 84.9562 40.9349 84.9562C41.3682 85.9718 41.6701 85.8578 41.9989 85.8831ZM38.2468 83.3948L36.7383 79.7053L35.3568 83.3948H38.2468Z" fill="#121A29"/>
<path d="M46.4353 77.203V77.4182C45.8708 77.4182 45.3459 77.6193 45.3459 78.5435V84.5455C45.3459 85.405 45.7509 85.8846 46.2956 85.8846V86.0998H42.6069V85.8846C43.1389 85.8846 43.5072 85.405 43.5072 84.5455V78.5435C43.5072 77.76 43.1516 77.4182 42.6069 77.4182V77.203H46.4353ZM52.3295 85.8832V86.0984H50.3271C48.9837 86.0984 48.6789 85.7327 47.3483 83.8112C46.6131 82.776 46.067 82.0558 46.067 82.0558L47.8167 79.9459C47.8167 79.9459 49.9969 77.4702 47.7405 77.4139V77.1987H51.9245V77.4139C51.0778 77.4139 50.1874 77.4393 47.4499 80.9389C50.4132 84.8944 50.543 85.0589 50.543 85.0589C50.7487 85.3333 51.0198 85.5524 51.3317 85.6963C51.6435 85.8402 51.9865 85.9044 52.3295 85.8832V85.8832Z" fill="#121A29"/>
<path d="M61.633 85.8832V86.0985H60.4675C58.2097 86.0858 58.5399 86.0858 57.6537 83.3443C57.2304 82.0418 56.0691 82.0418 56.0691 82.0418H55.4792V84.5737C55.4792 85.4331 55.8842 85.8875 56.4162 85.8875V86.1027H52.7275V85.8875C53.2722 85.8875 53.6405 85.4331 53.6405 84.5737V78.5463C53.6405 77.7628 53.2849 77.421 52.7275 77.421V77.2058H55.8715C58.3946 77.2058 60.1683 77.5096 60.1683 79.6196C60.1683 81.1669 59.2059 81.7295 57.6975 81.9067C58.5201 81.8181 59.5319 82.3737 60.1556 84.6482C60.404 85.6061 61.3043 85.8579 61.633 85.8832ZM58.0968 79.6168C58.0968 77.4182 57.0949 77.4182 55.8658 77.4182H55.4792V81.828H55.8715C57.0949 81.828 58.0968 81.8153 58.0968 79.6139V79.6168Z" fill="#121A29"/>
<path d="M66.2034 77.2029V77.4181C65.6573 77.4181 65.1253 77.7585 65.1253 78.5434V84.5708C65.1253 85.4302 65.67 85.8845 66.2034 85.8845V86.0997H62.21V85.8845C62.7546 85.8845 63.2881 85.4302 63.2881 84.5708V78.5434C63.2881 77.7599 62.7673 77.4181 62.21 77.4181V77.2029H66.2034Z" fill="#121A29"/>
<path d="M75.246 77.2029V79.7432H75.0315C74.9299 77.4814 72.2291 77.4181 72.2291 77.4181H71.9892V84.5693C71.9892 85.4288 72.5339 85.8831 73.0658 85.8831V86.0983H69.0738V85.8831C69.6058 85.8831 70.1505 85.4288 70.1505 84.5693V77.4181H69.9106C69.9106 77.4181 67.2295 77.4814 67.1208 79.7432H66.9092V77.2029H75.246Z" fill="#121A29"/>
<path d="M79.9998 77.2029V77.4181C79.4551 77.4181 78.9217 77.7585 78.9217 78.5434V84.5708C78.9217 85.4302 79.4664 85.8845 79.9998 85.8845V86.0997H76.0063V85.8845C76.551 85.8845 77.0844 85.4302 77.0844 84.5708V78.5434C77.0844 77.7599 76.5637 77.4181 76.0063 77.4181V77.2029H79.9998Z" fill="#121A29"/>
<path d="M19.1924 75.9918C19.8011 75.9918 20.2945 75.5 20.2945 74.8932C20.2945 74.2865 19.8011 73.7947 19.1924 73.7947C18.5837 73.7947 18.0903 74.2865 18.0903 74.8932C18.0903 75.5 18.5837 75.9918 19.1924 75.9918Z" fill="#121A29"/>
<path d="M64.2847 75.9918C64.8934 75.9918 65.3868 75.5 65.3868 74.8932C65.3868 74.2865 64.8934 73.7947 64.2847 73.7947C63.676 73.7947 63.1826 74.2865 63.1826 74.8932C63.1826 75.5 63.676 75.9918 64.2847 75.9918Z" fill="#121A29"/>
<path d="M78.002 76.2899C78.6106 76.2899 79.1041 75.7981 79.1041 75.1913C79.1041 74.5846 78.6106 74.0928 78.002 74.0928C77.3933 74.0928 76.8999 74.5846 76.8999 75.1913C76.8999 75.7981 77.3933 76.2899 78.002 76.2899Z" fill="#121A29"/>
</svg>
